inDegrees=no
num_controls=7
num_derivatives=13
num_iterations=118
num_multipliers=7
num_parameters=0
num_slacks=7
num_states=26
objective=5.219310
objective_accelerations=0.468762
objective_balance=0.093671
objective_effort=0.381176
objective_height=4.255136
objective_ligament=0.020565
solver_duration=1320.112432
status=Solve_Succeeded
success=true
DataType=double
version=3
OpenSimVersion=4.4-2022-07-23-0e9fedc
endheader
time	/jointset/ground_pelvis/pelvis_tilt/value	/jointset/ground_pelvis/pelvis_tx/value	/jointset/ground_pelvis/pelvis_ty/value	/jointset/hip_l/hip_flexion_l/value	/jointset/hip_l/hip_adduction_l/value	/jointset/hip_l/hip_rotation_l/value	/jointset/back/lumbar_extension/value	/jointset/patellofemoral_l/patellar_flexion_l/value	/jointset/knee_l/knee_flexion_l/value	/jointset/knee_l/knee_adduction_l/value	/jointset/knee_l/knee_rotation_l/value	/jointset/ankle_l/ankle_angle_l/value	/jointset/subtalar_l/subtalar_angle_l/value	/jointset/ground_pelvis/pelvis_tilt/speed	/jointset/ground_pelvis/pelvis_tx/speed	/jointset/ground_pelvis/pelvis_ty/speed	/jointset/hip_l/hip_flexion_l/speed	/jointset/hip_l/hip_adduction_l/speed	/jointset/hip_l/hip_rotation_l/speed	/jointset/back/lumbar_extension/speed	/jointset/patellofemoral_l/patellar_flexion_l/speed	/jointset/knee_l/knee_flexion_l/speed	/jointset/knee_l/knee_adduction_l/speed	/jointset/knee_l/knee_rotation_l/speed	/jointset/ankle_l/ankle_angle_l/speed	/jointset/subtalar_l/subtalar_angle_l/speed	/forceset/tau_hip_flexion_l	/forceset/tau_hip_adduction_l	/forceset/tau_hip_rotation_l	/forceset/tau_knee_flexion_l	/forceset/tau_ankle_angle_l	/forceset/tau_subtalar_angle_l	/forceset/tau_lumbar_extension	lambda_cid13_p0	lambda_cid13_p1	lambda_cid13_p2	lambda_cid13_p3	lambda_cid13_p4	lambda_cid13_p5	lambda_cid14_p0	/jointset/ground_pelvis/pelvis_tilt/accel	/jointset/ground_pelvis/pelvis_tx/accel	/jointset/ground_pelvis/pelvis_ty/accel	/jointset/hip_l/hip_flexion_l/accel	/jointset/hip_l/hip_adduction_l/accel	/jointset/hip_l/hip_rotation_l/accel	/jointset/back/lumbar_extension/accel	/jointset/patellofemoral_l/patellar_flexion_l/accel	/jointset/knee_l/knee_flexion_l/accel	/jointset/knee_l/knee_adduction_l/accel	/jointset/knee_l/knee_rotation_l/accel	/jointset/ankle_l/ankle_angle_l/accel	/jointset/subtalar_l/subtalar_angle_l/accel	gamma_cid13_p0	gamma_cid13_p1	gamma_cid13_p2	gamma_cid13_p3	gamma_cid13_p4	gamma_cid13_p5	gamma_cid14_p0
0.5	-0.4028998485559859	-0.04636156523019908	0.7913567503272331	1.122738634915257	-0.3075142748156551	-0.07384497819984692	-0.3139192999965975	0.6040062624461853	0.6040062624461268	-0.1742377193030061	0.1744245163901233	0.04711472485302361	-0.04376112166954298	-0.6388394129467246	-0.2255207358972153	-0.3889622256572206	2.013648156694222	-0.04750569285954469	0.5449683905154041	-0.6318710874871506	1.559767134025553	1.559767134025041	-0.00146772057547787	0.0003081051563202865	0.2680813920946878	-0.01283458877561287	-0.2193339350359577	0.02643620839073163	-0.01988672603688265	-0.1888084070484357	0.1114812257966011	0.03980576611217675	0.2027682470944757	-3.123619746254986	-20.19159798400737	6.758405465689633	-0.9767569644953027	-609.4054699864446	-58.35701630941057	-32.92112319842172	0.4482943060224299	0.5023160242398049	-0.258761507996601	-1.209910568940328	0.4834786251326689	-0.2706313847640375	1.457156745932277	-0.9038951137603677	-0.9038951137603239	0.01913729121787655	-0.02769990845860923	-0.08104912071981334	0.4646164085747346	-2.735895822786259e-08	-1.007678864450958e-06	2.21306396789055e-07	-1.196485295800561e-07	-1.423258867948722e-07	-2.074652900668033e-07	-1.3729820736513e-07
0.51	-0.4092645769446987	-0.04859137646942868	0.7874549681180342	1.142811226194432	-0.307966044713379	-0.06841059114116305	-0.3201648305893721	0.6195565516435206	0.6195565516435169	-0.1742525060161836	0.174427714923844	0.04979075739518803	-0.04386721463384009	-0.6340252895465673	-0.22041930093464	-0.3913173646069986	2.000602058638826	-0.04286138440467597	0.5418380585047511	-0.617158201196045	1.550076495886663	1.55007649588635	-0.001492379945162962	0.0003322926146304111	0.2670761466344733	-0.008399420555877234	-0.2266429654647229	0.02747426291296127	-0.01991027793782513	-0.1895421963959547	0.1100593352575872	0.04063072845821116	0.2084901492806703	-3.749583398133763	-20.34240630876395	6.670656032067417	-0.8213069363846769	-612.8891262240923	-58.03252661794566	-32.12643891218931	0.5101091246482833	0.5173656747289519	-0.2123903563907616	-1.392175893989135	0.4530327554578591	-0.3450208058293735	1.489879050379131	-1.033752384207271	-1.033752384177504	-0.01383635961401561	0.01749692881165681	-0.1176196842065945	0.4307831206731475	-3.254683230934701e-08	-9.534384747282082e-07	2.256255927702242e-07	-1.117334894641061e-07	-1.369376429626961e-07	-1.906155831281979e-07	-1.341433609025468e-07
0.52	-0.4155787365458539	-0.05076951167053825	0.7835319344657526	1.162745313199045	-0.3083717463666051	-0.0630096647418904	-0.3262609274232952	0.6350035136154243	0.6350035136154446	-0.1742676530847601	0.1744311591033401	0.05245526599764382	-0.04392939269753928	-0.6287256554410893	-0.2151855282732138	-0.3932125142737451	1.985947301777432	-0.03829204395805782	0.5382762586295579	-0.60198433571785	1.539101688937612	1.539101688937497	-0.001539791656937494	0.0003572343063731542	0.2657766041528961	-0.004051608656129941	-0.2339519958934674	0.02851231743523683	-0.01993382983872075	-0.1902759857434707	0.1086374447185846	0.04145569080429545	0.2142120514668731	-4.383190470003117	-20.49399907587397	6.585456440360129	-0.6536180166047749	-616.4945818871918	-57.75489133425344	-31.31209175835671	0.5453964470857345	0.5287835640107241	-0.1667636513901798	-1.531642330140244	0.4684850234825376	-0.3569249576720493	1.549352583349641	-1.160728875792913	-1.16072887579296	0.0145868227998938	-0.02754906177203465	-0.1399085249914458	0.4471451445772313	-3.727730405418386e-08	-8.930985987824011e-07	2.308639252774429e-07	-1.029960842699207e-07	-1.307036807988688e-07	-1.729734444207268e-07	-1.302560636132939e-07
0.53	-0.4218375537996206	-0.05289469513391889	0.7795922712989138	1.182524984556888	-0.3087321175618754	-0.05764632944040902	-0.3322030691118376	0.6503344013032406	0.6503344013032709	-0.1742833175998592	0.1744346991858746	0.05510536201475556	-0.04394851114823618	-0.6229602923922108	-0.2098330210877671	-0.394640522186375	1.969727152352903	-0.03379775406719403	0.5343202247130183	-0.5863800337997473	1.526869704073428	1.526869704073091	-0.001592156254325621	0.0003522559706013534	0.2641976486617149	0.0002106434685437365	-0.2410810737016617	0.02940534727529039	-0.02000230348757888	-0.1911387203645079	0.1074579363549747	0.04212708264274813	0.2197687966680026	-4.940791251835228	-20.59340543755911	6.493308779599129	-0.5275456535583396	-620.0631084436008	-57.40483116264709	-30.48132765854708	0.6037220707300102	0.5411861135665607	-0.1189053105522582	-1.706185269799562	0.4376391725095857	-0.4256616081964967	1.575564223646898	-1.285329332222175	-1.285329332255627	-0.01513983129866725	0.01316764990595893	-0.173643040721409	0.4132823119334338	-4.274366091424517e-08	-8.319013805443438e-07	2.431423689153929e-07	-9.308851860599213e-08	-1.253717972586179e-07	-1.554665896231747e-07	-1.270800531335106e-07
0.54	-0.4280363942554827	-0.05496581316189249	0.775640710863078	1.20213465761627	-0.3090479982181231	-0.05232469827798219	-0.3379872487356728	0.6655367899343287	0.6655367899343263	-0.1742995041069954	0.1744382174589403	0.05773831768104827	-0.04392550366458167	-0.6167302958657992	-0.2043724411918079	-0.3955919680731859	1.951947642080754	-0.02939393615148593	0.5299354308144135	-0.5703919227774739	1.5134018775896	1.51340187758904	-0.001644190063330594	0.0003528724102593989	0.2623485339889456	0.004373578214061679	-0.2482101515098248	0.03029837711539402	-0.02007077713651447	-0.1920014549855231	0.1062784279913783	0.04279847448125645	0.2253255418691499	-5.505697494462122	-20.69376423375391	6.403862042825568	-0.3923805580871286	-623.7498311025681	-57.10013961493834	-29.63739580041736	0.6383231425915517	0.5503981061138882	-0.07145124622627232	-1.843514499664497	0.4503906284513771	-0.4426769540851319	1.626114404183319	-1.407897199722091	-1.407897199721842	0.01465298047643929	-0.02643010668600384	-0.1939403613081722	0.4272816687462393	-4.902418854008676e-08	-7.697556133872008e-07	2.632098716767053e-07	-8.18863073159647e-08	-1.210379581529624e-07	-1.381094106408521e-07	-1.246909982727148e-07
0.55	-0.4341707109249612	-0.05698183692075586	0.7716820299601388	1.22155894772036	-0.3093202567944143	-0.04704903092771082	-0.3436096791571727	0.6805984455168264	0.6805984455168456	-0.1743160285679235	0.1744417304910705	0.06035148884481213	-0.04386132010955376	-0.610060610107036	-0.1988186576840307	-0.3960629844845586	1.932662618759835	-0.02507259179783641	0.5251072024392632	-0.5540394993004814	1.498735414850267	1.498735414849827	-0.00163883781889953	0.0003668070405133573	0.2602456133829077	0.008447403074235275	-0.2551671413016817	0.03103642350610877	-0.02017265197181405	-0.1929223848296	0.1052215255210665	0.04336720790909396	0.2307171842439788	-6.029567730308304	-20.75792692703397	6.310019033378045	-0.2686119440441629	-627.3611029434733	-56.75239437109119	-28.78340510723901	0.6921448077099673	0.5599012541393213	-0.022766368542996	-2.008172756652256	0.4208340605034115	-0.5166464497549073	1.648005651796639	-1.525069742812177	-1.525069742794479	-0.003356537391012197	0.01778275658628765	-0.2244907685840137	0.3951573977349899	-8.285686208002437e-08	-6.595038397134363e-07	4.203505582488449e-07	-4.269587285716293e-08	-1.387330501015961e-07	-1.109412389153602e-07	-1.378120083627247e-07
0.5600000000000001	-0.4402361600337861	-0.0589419162883341	0.7677210709870954	1.240782952289593	-0.3095497363828421	-0.04182439599527552	-0.3490669454774302	0.6955076266855839	0.695507626685593	-0.1743318660831699	0.1744458783712613	0.06294242623084974	-0.04375685340530731	-0.6029567837407268	-0.1931835629347779	-0.3960475820940036	1.911890535105047	-0.02083813857692715	0.5197289472431135	-0.5373591025299884	1.482906994840002	1.48290699483968	-0.001506800927164393	0.0004798420189763484	0.2579017784435824	0.01243020805769531	-0.2621241310935147	0.03177446989686977	-0.0202745268071466	-0.1938433146736639	0.1041646230507656	0.04393594133697992	0.2361088266188209	-6.560399409621548	-20.82327006807926	6.219105006245912	-0.1392522785703996	-631.0867676156632	-56.44936909912536	-27.92243020562656	0.7251512641000161	0.5666603544096178	0.02583251415938447	-2.140926566438329	0.4330124019033047	-0.5526823182850394	1.691709062883008	-1.640288653908728	-1.640288653908796	0.0399899099371736	-0.006610037044122892	-0.2421232279648524	0.409077693403669	-1.497521107168761e-07	-4.915248582197276e-07	7.41979065393972e-07	3.008042940416696e-08	-1.828628593153761e-07	-7.199987589806568e-08	-1.695450963937008e-07
0.5700000000000001	-0.446228469138181	-0.06084530765380954	0.7637627102507558	1.259791856356587	-0.3097375750015639	-0.0366548193643399	-0.3543558694715131	0.7102524622344537	0.7102524622344606	-0.1743469655718805	0.1744505813090347	0.06550857350626937	-0.04361333347934795	-0.5954360067308293	-0.1874874153622833	-0.3955428957233028	1.889654217380651	-0.01674942713062744	0.5141097062781252	-0.5203817266501799	1.465872511607442	1.465872511607322	-0.001502263693408947	0.0004701910020828572	0.2552867102144952	0.01625212466415867	-0.2689348719309523	0.03239503053478501	-0.02036093923162604	-0.1947166143668771	0.1029925216548759	0.0443943250474997	0.2413372783797635	-7.125804388290317	-20.83521564988589	6.120341072284616	0.07024758313699772	-634.6952224017431	-56.07329740513804	-27.05993265501936	0.7758733681833979	0.5722004293302676	0.07499555141469799	-2.300420433913575	0.3937439910449451	-0.5782134190007882	1.707347295085841	-1.763131158163108	-1.763131158132712	-0.01771068544840571	0.003079259000138175	-0.2773452525177559	0.3654559898452058	-1.815273592864826e-07	-3.729853381843172e-07	9.001635884450367e-07	6.990411597231543e-08	-1.985644812458639e-07	-4.161012932193143e-08	-1.813993631028078e-07
0.58	-0.452143503982701	-0.06269151584942653	0.7598118381487008	1.278571310034661	-0.3098851378108239	-0.03154376882971866	-0.3594737006178825	0.7248213323509535	0.7248213323509398	-0.1743616989513384	0.1744554321152711	0.06804734077297026	-0.04343225291820815	-0.5875019317710768	-0.1817469289630851	-0.3945498552370931	1.866000457317321	-0.01278297668226005	0.5080237279773283	-0.5031405329882006	1.447713908365548	1.44771390836563	-0.001433579081382603	0.000509415705673841	0.2524257766999325	0.01994233509372546	-0.2757456127683855	0.03301559117271671	-0.020447351656004	-0.1955899140601038	0.1018204202589872	0.0448527087580381	0.24656573014071	-7.695031396262589	-20.8498274867966	6.025812666745161	0.2619429564359896	-638.3811705153057	-55.75480806352483	-26.20232762382652	0.8078108540702594	0.5755281197508886	0.1235033372613002	-2.42441503422495	0.4085602023168317	-0.646029785446775	1.744472619316761	-1.865112655775362	-1.865112655775595	0.0528193855912753	0.003165107052863322	-0.2912962850591667	0.3827364580244838	-1.67564933349911e-07	-3.188320935364563e-07	8.454908298852372e-07	6.681276814934533e-08	-1.772433476446238e-07	-2.235737159940108e-08	-1.673649322764585e-07
